{
 "accessors": [
  {
   "componentType": 5126,
   "type": "VEC3",
   "count": 2256,
   "max": [
    0.5,
    0.5,
    0.5
   ],
   "min": [
    -0.5,
    -0.5,
    -0.5
   ],
   "bufferView": 0
  },
  {
   "componentType": 5126,
   "type": "VEC3",
   "count": 2256,
   "bufferView": 1
  },
  {
   "componentType": 5126,
   "type": "VEC2",
   "count": 2256,
   "bufferView": 2
  },
  {
   "componentType": 5123,
   "type": "SCALAR",
   "count": 3312,
   "bufferView": 3
  },
  {
   "componentType": 5126,
   "type": "VEC3",
   "count": 240,
   "max": [
    0.5,
    0.5,
    0.5
   ],
   "min": [
    -0.5,
    -0.5,
    -0.5
   ],
   "bufferView": 4
  },
  {
   "componentType": 5126,
   "type": "VEC3",
   "count": 240,
   "bufferView": 5
  },
  {
   "componentType": 5126,
   "type": "VEC2",
   "count": 240,
   "bufferView": 6
  },
  {
   "componentType": 5121,
   "type": "SCALAR",
   "count": 288,
   "bufferView": 7
  }
 ],
 "asset": {
  "version": "2.0",
  "generator": "clara.io"
 },
 "bufferViews": [
  {
   "buffer": 0,
   "byteOffset": 0,
   "byteLength": 27072,
   "target": 34962,
   "byteStride": 12
  },
  {
   "buffer": 0,
   "byteOffset": 27072,
   "byteLength": 27072,
   "target": 34962,
   "byteStride": 12
  },
  {
   "buffer": 0,
   "byteOffset": 54144,
   "byteLength": 18048,
   "target": 34962,
   "byteStride": 8
  },
  {
   "buffer": 0,
   "byteOffset": 72192,
   "byteLength": 6624,
   "target": 34963
  },
  {
   "buffer": 0,
   "byteOffset": 78816,
   "byteLength": 2880,
   "target": 34962,
   "byteStride": 12
  },
  {
   "buffer": 0,
   "byteOffset": 81696,
   "byteLength": 2880,
   "target": 34962,
   "byteStride": 12
  },
  {
   "buffer": 0,
   "byteOffset": 84576,
   "byteLength": 1920,
   "target": 34962,
   "byteStride": 8
  },
  {
   "buffer": 0,
   "byteOffset": 86496,
   "byteLength": 288,
   "target": 34963
  }
 ],
 "buffers": [
  {
   "byteLength": 86784,
   "uri": "data:application/octet-stream;base64,"
  }
 ],
 "materials": [
  {
   "name": "Default-Sphere",
   "pbrMetallicRoughness": {
    "baseColorFactor": [
     0.9294117647058824,
     0.0784313725490196,
     0.3568627450980392,
     1
    ]
   }
  },
  {
   "name": "Default-Cylinder",
   "pbrMetallicRoughness": {
    "baseColorFactor": [
     0.9294117647058824,
     0.0784313725490196,
     0.3568627450980392,
     1
    ]
   }
  }
 ],
 "meshes": [
  {
   "primitives": [
    {
     "indices": 3,
     "material": 0,
     "mode": 4,
     "attributes": {
      "POSITION": 0,
      "NORMAL": 1,
      "TEXCOORD_0": 2
     }
    }
   ]
  },
  {
   "primitives": [
    {
     "indices": 7,
     "material": 1,
     "mode": 4,
     "attributes": {
      "POSITION": 4,
      "NORMAL": 5,
      "TEXCOORD_0": 6
     }
    }
   ]
  }
 ],
 "nodes": [
  {
   "name": "Sphere",
   "translation": [
    0,
    1.6340999603271484,
    0
   ],
   "mesh": 0
  },
  {
   "name": "Cylinder",
   "translation": [
    0,
    0.6169000267982483,
    0
   ],
   "scale": [
    0.550000011920929,
    1.2730000019073486,
    0.550000011920929
   ],
   "mesh": 1
  }
 ],
 "scene": 0,
 "scenes": [
  {
   "nodes": [
    0,
    1
   ]
  }
 ]
}